<svg xmlns="http://www.w3.org/2000/svg" viewBox="0 0 120.67 124.33" class="theme-aware-svg">
<defs>
<style>
.theme-aware-svg {
  --svg-fill: #000000;
}
.dark .theme-aware-svg {
  --svg-fill: #ffffff;
}
.cls-1 {
  fill: var(--svg-fill);
}
path:not(.cls-1) {
  fill: var(--svg-fill);
}
</style>
</defs>
<g id="Layer_2" data-name="Layer 2">
<g id="Layer_1-2" data-name="Layer 1">
<path d="M18,105.22l-2.86-.38c-5.18-.65-7.94-3.66-8.86-8.84A127.9,127.9,0,0,0,2.75,80.85C.4,73.27.15,65.71,2.78,58.33c1.64-4.6.7-8.51-1.15-12.57A9.54,9.54,0,0,1,.77,39.9c1.3-6.92,3-13.66,6.26-20A27.83,27.83,0,0,1,21.58,6.79C29.37,3.5,37.37.81,45.84.16c4.7-.36,9.45,0,14.18,0,9.63-.1,18.4,3,26.86,7.18q7.26,3.6,14.37,7.5c11.53,6.33,17.45,16.38,19.11,29.2,1.18,9.14-1.15,17.65-4.83,25.87-1.85,4.12-4,8.11-6,12.13A38.66,38.66,0,0,1,101,92.68a3.29,3.29,0,0,0-1.2,2.88,4.73,4.73,0,0,1-1.62,3.87,32,32,0,0,1-9.2,6.35c-9.95,4.92-20.43,8.45-31,11.87a138.11,138.11,0,0,1-23.94,5.64c-5.23.71-10.57.62-15.85.92-1.48.08-2-.64-1.83-2,.35-3.25.74-6.5,1.06-9.75.22-2.38.34-4.76.52-7.25M92.62,77.8l.31-.54.87.4c5.38,2.45,7.76,2.69,11.65-1.25a7.06,7.06,0,0,0,.92-1c2.13-3.32,4.52-6.51,6.3-10a13.53,13.53,0,0,0-.78-14c-1.66-2.63-2.93-3.27-5.87-2.18a33.39,33.39,0,0,0-6.2,3.2c-3.12,2-6.06,4.23-9.15,6.24-2.71,1.78-4.73.66-5-2.53-.23-2.8-.46-5.61-.93-8.37C83.53,40.58,80.42,34.56,74,30.67a13.75,13.75,0,0,1-2-1.56,15.2,15.2,0,0,1-5.3-8.75c-.61-3.11-1.44-6.18-2.25-9.24A13.1,13.1,0,0,0,63.18,8c-1.43-2.46-3.92-3.52-6.45-4.32a34.38,34.38,0,0,0-17-1.07c-9.2,1.75-17.53,5.73-25.49,10.57A15.36,15.36,0,0,0,9,18.57C5.46,24.49,3.55,31,2.32,37.71A15.3,15.3,0,0,0,3.49,47.84c1.72,3.34,1.55,6.62.4,10.09A35.6,35.6,0,0,0,3.76,80.6C5.41,85.73,7,90.92,7.35,96.37A8.21,8.21,0,0,0,14,103.63c1.62.26,3.25.43,5.15.67-.55,6.24-1.1,12.49-1.66,18.88a87.67,87.67,0,0,0,17.77-1.06c10.11-1.52,19.84-4.52,29.51-7.74a163.31,163.31,0,0,0,24.38-9.89,67.43,67.43,0,0,0,8.3-5.74,3.87,3.87,0,0,0,1.45-3.28c0-2.26.37-4.51.56-6.76.21-2.68.39-5.36.59-8-2.64-1.09-5.64-.62-7.4-3"/><path d="M16,84.37c-2-.14-4-.19-6-.47a3.54,3.54,0,0,1-3.06-2.7,16.12,16.12,0,0,1-.83-4c-.17-3,1.3-4.8,3.73-6.09a15.07,15.07,0,0,1,11.32-1.41c2.55.7,5.06,1.52,7.56,2.38,2.88,1,5.74,2.11,8.6,3.19a13.35,13.35,0,0,1,2.57,1.1,7.75,7.75,0,0,1,1.44,1.66,8.16,8.16,0,0,1-1.52,1.14A61.51,61.51,0,0,1,16,84.37m20.61-5c-1,0-1.77,0-2.48,0-6.28-.09-12.57-.28-18.85-.24a70.11,70.11,0,0,0-7.54.84c.58,2.45,1.11,3,3.54,3.19a57.73,57.73,0,0,0,25.33-3.79m-.46-1.22a1.24,1.24,0,0,0,0-.16L23.58,75.19c.31,1.22.5,2,.73,2.92Zm-12.9-.18c-.17-.92-.31-1.75-.47-2.65H19.63v2.65ZM15,77.53c0,.13.09.26.13.39h3.34v-2.7L15,77.53"/><path class="cls-1" d="M34.09,79.33c.71,0,1.43,0,2.48,0"/><path class="cls-1" d="M36.15,78a1.24,1.24,0,0,1,0,.16"/><path class="cls-1" d="M15.17,77.92c0-.13-.09-.26-.13-.39"/><path class="cls-1" d="M18.51,75.22"/><path d="M17.32,105.34,14.47,105c-5.18-.65-7.94-3.66-8.86-8.84A125.55,125.55,0,0,0,2.12,81c-2.34-7.58-2.59-15.14,0-22.53,1.64-4.59.7-8.5-1.15-12.56A9.47,9.47,0,0,1,.15,40c1.3-6.92,3-13.66,6.26-20A27.83,27.83,0,0,1,21,6.91c7.79-3.3,15.79-6,24.26-6.63,4.7-.36,9.45,0,14.18-.05,9.63-.1,18.4,3,26.86,7.18q7.26,3.6,14.37,7.5c11.53,6.33,17.45,16.38,19.11,29.2,1.18,9.14-1.15,17.65-4.83,25.87-1.85,4.12-4,8.11-6,12.13a38.66,38.66,0,0,1-8.5,10.69,3.29,3.29,0,0,0-1.2,2.88,4.74,4.74,0,0,1-1.62,3.87,32.34,32.34,0,0,1-9.2,6.35c-10,4.92-20.43,8.45-31,11.86a136.51,136.51,0,0,1-23.94,5.64c-5.23.72-10.57.63-15.85.92-1.48.09-2-.63-1.83-2,.35-3.25.74-6.5,1.05-9.75.23-2.38.35-4.76.52-7.25M92,77.92c.1-.18.2-.36.31-.54l.87.4c5.38,2.44,7.76,2.69,11.65-1.25a7.61,7.61,0,0,0,.92-1c2.13-3.32,4.52-6.51,6.3-10a13.53,13.53,0,0,0-.78-14c-1.66-2.63-2.93-3.27-5.87-2.18a32.88,32.88,0,0,0-6.21,3.2c-3.11,2-6,4.23-9.14,6.24-2.71,1.77-4.73.66-5-2.53-.23-2.8-.46-5.61-.93-8.37-1.22-7.17-4.33-13.19-10.8-17.08a13.75,13.75,0,0,1-2-1.56,15.2,15.2,0,0,1-5.3-8.75c-.61-3.11-1.44-6.18-2.25-9.24a13.1,13.1,0,0,0-1.27-3.13c-1.43-2.46-3.92-3.52-6.45-4.32a34.38,34.38,0,0,0-17-1.07C30,4.47,21.62,8.45,13.66,13.29a15.28,15.28,0,0,0-5.26,5.4C4.84,24.61,2.93,31.07,1.7,37.83A15.3,15.3,0,0,0,2.87,48c1.72,3.34,1.55,6.62.4,10.09a35.6,35.6,0,0,0-.13,22.67C4.79,85.85,6.4,91,6.73,96.49a8.22,8.22,0,0,0,6.62,7.26c1.62.26,3.25.43,5.15.67-.55,6.24-1.1,12.49-1.66,18.88a87.67,87.67,0,0,0,17.77-1.06c10.11-1.52,19.84-4.52,29.51-7.74a163.74,163.74,0,0,0,24.38-9.89,67.43,67.43,0,0,0,8.3-5.74,3.87,3.87,0,0,0,1.45-3.28c0-2.26.37-4.51.56-6.77.21-2.67.39-5.35.59-7.95-2.64-1.09-5.65-.62-7.4-3"/>
</g></g></svg>